<?xml version="1.0" standalone="no"?>
<!DOCTYPE svg PUBLIC "-//W3C//DTD SVG 20010904//EN"
 "http://www.w3.org/TR/2001/REC-SVG-20010904/DTD/svg10.dtd">
<svg version="1.0" xmlns="http://www.w3.org/2000/svg"
 width="1296.000000pt" height="1296.000000pt" viewBox="0 0 1296.000000 1296.000000"
 preserveAspectRatio="xMidYMid meet">
<metadata>
Created by potrace 1.11, written by Peter Selinger 2001-2013
</metadata>
<g transform="translate(0.000000,1296.000000) scale(0.100000,-0.100000)"
fill="#000000" stroke="none">
<path d="M1325 12024 c3 -76 8 -159 10 -184 2 -25 7 -97 10 -160 4 -63 8 -131
10 -150 2 -19 7 -75 10 -125 4 -49 8 -106 10 -125 2 -19 7 -73 10 -119 4 -47
8 -93 10 -103 2 -10 7 -55 10 -101 3 -45 8 -93 10 -107 2 -14 7 -54 10 -90 4
-36 8 -78 10 -95 2 -16 6 -57 10 -90 8 -82 17 -153 30 -252 3 -21 7 -60 10
-88 3 -27 15 -115 26 -195 11 -80 22 -163 25 -185 2 -22 7 -51 9 -65 6 -33 15
-98 20 -135 3 -16 7 -48 10 -70 4 -22 8 -51 10 -65 12 -81 84 -510 90 -540 3
-14 8 -41 11 -60 3 -19 16 -93 30 -165 14 -71 27 -140 30 -152 10 -54 14 -73
34 -173 25 -123 20 -97 60 -280 17 -80 33 -152 35 -160 41 -188 118 -499 172
-694 19 -72 36 -137 38 -145 12 -54 176 -601 194 -646 5 -11 30 -85 56 -165
87 -263 270 -743 365 -955 10 -22 28 -62 40 -90 103 -230 256 -537 365 -730
16 -27 36 -63 45 -80 65 -116 330 -529 349 -545 4 -3 15 -18 25 -35 38 -60
223 -292 323 -407 133 -151 301 -320 433 -433 142 -122 133 -115 225 -183 39
-28 75 -55 80 -60 58 -47 455 -296 455 -285 0 3 8 -1 18 -9 24 -21 271 -143
417 -206 425 -182 910 -319 1370 -387 22 -4 51 -8 65 -10 14 -3 50 -7 80 -11
30 -3 62 -8 70 -9 8 -2 51 -6 95 -10 44 -4 91 -8 105 -11 147 -23 902 -23
1051 1 13 2 56 6 95 9 39 4 80 8 90 10 11 2 48 7 84 11 36 4 67 8 70 10 3 2
28 6 55 9 28 4 69 11 93 17 23 5 59 12 80 15 83 12 393 98 506 140 67 25 128
47 136 50 22 7 597 -858 690 -1038 14 -27 28 -48 31 -48 14 0 99 64 157 118
55 50 62 61 50 73 -8 8 -38 41 -68 74 -29 33 -86 96 -125 140 -40 44 -96 107
-125 140 -29 33 -69 78 -89 100 -30 33 -179 199 -216 241 -5 6 -40 44 -76 85
-129 143 -138 154 -131 160 4 4 39 23 77 44 138 75 205 133 325 285 236 297
412 605 526 918 42 115 95 300 109 377 2 17 7 41 10 55 3 14 8 45 11 70 3 25
7 51 10 58 25 80 25 588 -1 724 -3 12 -7 40 -10 63 -3 22 -8 47 -10 55 -2 8
-6 32 -10 54 -19 134 -113 437 -195 631 -38 90 -163 337 -217 428 -61 104
-185 297 -208 324 -5 6 -21 28 -35 48 -14 20 -63 84 -109 143 -75 96 -120 150
-241 287 -59 66 -320 325 -410 406 -206 185 -452 378 -698 548 -74 50 -135 91
-137 91 -2 0 -32 19 -66 42 -237 157 -644 373 -1014 538 -92 41 -371 149 -516
200 -119 42 -480 153 -538 165 -9 2 -65 16 -126 30 -60 15 -119 28 -130 31
-11 2 -31 6 -45 9 -78 17 -98 20 -260 49 -86 15 -116 19 -205 31 -27 4 -61 8
-75 10 -14 2 -56 7 -95 10 -38 4 -77 8 -85 10 -8 2 -46 7 -85 11 -38 3 -73 8
-76 10 -3 1 -28 6 -55 9 -27 4 -116 20 -199 37 -872 175 -1600 595 -2190 1264
-38 43 -72 81 -75 84 -21 19 -211 260 -286 362 -98 133 -257 363 -315 456
-208 332 -588 919 -606 938 -7 7 -13 17 -13 22 0 5 -7 15 -16 23 -14 12 -15 0
-9 -127z"/>
</g>
</svg>
